<svg width="464" height="260" viewBox="0 0 464 260" fill="none" xmlns="http://www.w3.org/2000/svg">
<g filter="url(#filter0_i_103_38)">
<path d="M22.272 170.688C22.7413 170.475 23.4027 170.261 24.256 170.048C25.152 169.792 26.048 169.664 26.944 169.664C28.5227 169.664 29.824 169.899 30.848 170.368C31.9147 170.837 32.576 171.541 32.832 172.48C33.5573 174.997 34.2187 177.301 34.816 179.392C35.4133 181.483 35.9893 183.509 36.544 185.472C37.1413 187.392 37.7173 189.419 38.272 191.552H38.528C39.1253 188.011 39.6587 184.619 40.128 181.376C40.5973 178.133 41.0453 174.933 41.472 171.776C41.8987 168.619 42.304 165.376 42.688 162.048C44.096 161.28 45.5467 160.896 47.04 160.896C48.448 160.896 49.6427 161.195 50.624 161.792C51.6053 162.389 52.096 163.392 52.096 164.8C52.096 165.739 51.9893 167.061 51.776 168.768C51.6053 170.432 51.3493 172.352 51.008 174.528C50.6667 176.704 50.2613 178.965 49.792 181.312C49.3653 183.659 48.896 185.963 48.384 188.224C47.872 190.443 47.36 192.469 46.848 194.304C46.336 196.096 45.8453 197.547 45.376 198.656C44.8213 199.125 43.9253 199.552 42.688 199.936C41.4507 200.277 40.1493 200.448 38.784 200.448C37.0773 200.448 35.6053 200.213 34.368 199.744C33.1307 199.232 32.384 198.549 32.128 197.696C31.7013 196.459 31.2107 195.008 30.656 193.344C30.144 191.68 29.6107 189.867 29.056 187.904C28.5013 185.899 27.9467 183.851 27.392 181.76C26.9227 183.808 26.4107 185.899 25.856 188.032C25.3013 190.123 24.768 192.085 24.256 193.92C23.744 195.755 23.2747 197.333 22.848 198.656C22.2933 199.125 21.44 199.552 20.288 199.936C19.1787 200.277 17.9413 200.448 16.576 200.448C14.9547 200.448 13.4613 200.192 12.096 199.68C10.7307 199.168 9.856 198.507 9.472 197.696C9.04533 196.715 8.53333 195.243 7.936 193.28C7.38133 191.275 6.784 188.992 6.144 186.432C5.54667 183.829 4.97067 181.12 4.416 178.304C3.86133 175.488 3.34933 172.757 2.88 170.112C2.41067 167.424 2.048 165.013 1.792 162.88C2.34667 162.411 3.072 161.963 3.968 161.536C4.90667 161.109 5.93067 160.896 7.04 160.896C8.448 160.896 9.6 161.216 10.496 161.856C11.392 162.453 11.968 163.499 12.224 164.992C12.9067 168.917 13.4613 172.288 13.888 175.104C14.3573 177.92 14.7413 180.331 15.04 182.336C15.3813 184.341 15.68 186.091 15.936 187.584C16.192 189.035 16.448 190.357 16.704 191.552H17.024C17.4507 189.803 17.856 188.181 18.24 186.688C18.624 185.152 19.0293 183.616 19.456 182.08C19.8827 180.501 20.3307 178.816 20.8 177.024C21.2693 175.189 21.76 173.077 22.272 170.688ZM55.4155 189.12L55.0315 182.72L70.9035 180.224C70.8182 179.029 70.3062 177.92 69.3675 176.896C68.4288 175.872 67.0422 175.36 65.2075 175.36C63.2875 175.36 61.6875 176.021 60.4075 177.344C59.1275 178.624 58.4448 180.459 58.3595 182.848L58.6795 187.264C59.0635 189.611 60.0662 191.296 61.6875 192.32C63.3088 193.301 65.2288 193.792 67.4475 193.792C69.2395 193.792 70.9248 193.536 72.5035 193.024C74.0822 192.512 75.3622 191.979 76.3435 191.424C76.9835 191.808 77.4955 192.341 77.8795 193.024C78.3062 193.707 78.5195 194.432 78.5195 195.2C78.5195 196.48 78.0075 197.547 76.9835 198.4C76.0022 199.253 74.6155 199.893 72.8235 200.32C71.0742 200.747 69.0688 200.96 66.8075 200.96C63.5222 200.96 60.5568 200.341 57.9115 199.104C55.3088 197.867 53.2608 196.011 51.7675 193.536C50.2742 191.061 49.5275 187.968 49.5275 184.256C49.5275 181.525 49.9542 179.157 50.8075 177.152C51.7035 175.147 52.8768 173.504 54.3275 172.224C55.8208 170.901 57.4848 169.92 59.3195 169.28C61.1968 168.64 63.1382 168.32 65.1435 168.32C68.0875 168.32 70.6475 168.917 72.8235 170.112C75.0422 171.264 76.7702 172.843 78.0075 174.848C79.2448 176.853 79.8635 179.179 79.8635 181.824C79.8635 183.147 79.5008 184.149 78.7755 184.832C78.0502 185.515 77.0475 185.941 75.7675 186.112L55.4155 189.12ZM95.543 168.32C98.3163 168.32 100.834 168.939 103.095 170.176C105.356 171.371 107.148 173.184 108.471 175.616C109.794 178.005 110.455 180.971 110.455 184.512C110.455 188.096 109.751 191.104 108.343 193.536C106.978 195.968 105.036 197.824 102.519 199.104C100.002 200.341 97.0577 200.96 93.687 200.96C91.0417 200.96 88.759 200.64 86.839 200C84.9617 199.36 83.383 198.613 82.103 197.76C81.207 197.12 80.5243 196.416 80.055 195.648C79.6283 194.88 79.415 193.984 79.415 192.96V172.672H88.823V192.256C89.335 192.555 89.9963 192.832 90.807 193.088C91.6177 193.344 92.535 193.472 93.559 193.472C95.735 193.472 97.463 192.725 98.743 191.232C100.066 189.739 100.727 187.499 100.727 184.512C100.727 181.483 100.087 179.285 98.807 177.92C97.5697 176.512 95.9057 175.808 93.815 175.808C92.4497 175.808 91.2337 176.064 90.167 176.576C89.1003 177.088 88.183 177.664 87.415 178.304L87.159 170.624C88.1403 170.069 89.335 169.557 90.743 169.088C92.1937 168.576 93.7937 168.32 95.543 168.32ZM88.887 174.912H79.415V158.336C79.799 158.208 80.375 158.08 81.143 157.952C81.911 157.824 82.743 157.76 83.639 157.76C85.4737 157.76 86.7963 158.08 87.607 158.72C88.4603 159.36 88.887 160.533 88.887 162.24V174.912ZM138.556 186.304C143.164 186.304 146.449 185.493 148.412 183.872C150.46 182.165 151.484 180.16 151.484 177.856C151.484 175.723 150.673 174.016 149.052 172.736C147.516 171.371 145.212 170.219 142.14 169.28L135.356 167.104C130.748 165.568 126.652 163.861 123.068 161.984C119.569 160.107 116.839 157.675 114.876 154.688C112.999 151.701 112.06 147.904 112.06 143.296C112.06 136.213 114.748 130.581 120.124 126.4C125.5 122.219 132.967 120.128 142.524 120.128C147.388 120.128 151.697 120.597 155.452 121.536C159.292 122.475 162.279 123.883 164.412 125.76C166.631 127.552 167.74 129.771 167.74 132.416C167.74 134.379 167.271 136.085 166.332 137.536C165.479 138.901 164.369 140.096 163.004 141.12C161.041 139.755 158.439 138.603 155.196 137.664C151.953 136.64 148.369 136.128 144.444 136.128C140.348 136.128 137.276 136.811 135.228 138.176C133.18 139.456 132.156 141.163 132.156 143.296C132.156 145.003 132.839 146.411 134.204 147.52C135.569 148.544 137.617 149.483 140.348 150.336L147.388 152.512C155.153 154.901 161.127 158.101 165.308 162.112C169.489 166.037 171.58 171.328 171.58 177.984C171.58 185.152 168.807 190.997 163.26 195.52C157.713 199.957 149.692 202.176 139.196 202.176C133.991 202.176 129.34 201.621 125.244 200.512C121.148 199.403 117.863 197.781 115.388 195.648C112.999 193.515 111.804 191.04 111.804 188.224C111.804 186.005 112.444 184.128 113.724 182.592C115.089 180.971 116.583 179.776 118.204 179.008C120.508 180.885 123.367 182.592 126.78 184.128C130.279 185.579 134.204 186.304 138.556 186.304ZM224.166 180.672C223.227 181.44 221.947 182.08 220.326 182.592C218.79 183.104 216.998 183.36 214.95 183.36C212.305 183.36 210.086 183.019 208.294 182.336C206.502 181.653 205.35 180.501 204.838 178.88C201.937 170.773 199.462 164.032 197.414 158.656C195.451 153.28 193.915 148.629 192.806 144.704H192.166C191.91 150.08 191.697 154.987 191.526 159.424C191.355 163.861 191.227 168.213 191.142 172.48C191.057 176.661 190.929 180.928 190.758 185.28C190.587 189.632 190.331 194.411 189.99 199.616C189.051 199.872 187.771 200.171 186.15 200.512C184.614 200.853 183.078 201.024 181.542 201.024C178.299 201.024 175.739 200.469 173.862 199.36C172.07 198.251 171.174 196.331 171.174 193.6C171.174 191.723 171.259 188.949 171.43 185.28C171.686 181.525 171.942 177.259 172.198 172.48C172.539 167.616 172.838 162.496 173.094 157.12C173.435 151.744 173.777 146.453 174.118 141.248C174.545 135.957 174.929 131.093 175.27 126.656C175.953 125.632 177.318 124.608 179.366 123.584C181.414 122.475 184.23 121.92 187.814 121.92C191.654 121.92 194.726 122.56 197.03 123.84C199.419 125.035 201.126 127.04 202.15 129.856C203.43 132.928 204.795 136.512 206.246 140.608C207.697 144.619 209.105 148.715 210.47 152.896C211.921 156.992 213.243 160.704 214.438 164.032H215.078C217.467 156.523 219.899 149.184 222.374 142.016C224.934 134.848 227.11 128.875 228.902 124.096C230.097 123.413 231.59 122.901 233.382 122.56C235.259 122.133 237.222 121.92 239.27 121.92C242.939 121.92 245.883 122.475 248.102 123.584C250.406 124.608 251.771 126.187 252.198 128.32C252.539 129.941 252.881 132.501 253.222 136C253.649 139.499 254.075 143.552 254.502 148.16C254.929 152.683 255.355 157.461 255.782 162.496C256.209 167.445 256.593 172.309 256.934 177.088C257.361 181.781 257.702 186.005 257.958 189.76C258.214 193.515 258.385 196.501 258.47 198.72C257.19 199.488 255.825 200.043 254.374 200.384C253.009 200.811 251.259 201.024 249.126 201.024C246.395 201.024 244.049 200.512 242.086 199.488C240.209 198.464 239.185 196.501 239.014 193.6C238.587 186.944 238.246 180.629 237.99 174.656C237.734 168.597 237.521 163.093 237.35 158.144C237.265 153.109 237.137 148.8 236.966 145.216H236.326C235.217 148.885 233.638 153.536 231.59 159.168C229.627 164.715 227.153 171.883 224.166 180.672ZM294.69 202.176C287.693 202.176 281.677 200.939 276.642 198.464C271.693 195.904 267.853 192.363 265.122 187.84C262.477 183.317 261.154 178.027 261.154 171.968V163.52H280.738V171.456C280.738 176.149 282.018 179.819 284.578 182.464C287.223 185.024 290.594 186.304 294.69 186.304C298.786 186.304 302.114 185.024 304.674 182.464C307.319 179.819 308.642 176.149 308.642 171.456V163.52H328.226V171.968C328.226 178.027 326.903 183.317 324.258 187.84C321.613 192.363 317.773 195.904 312.738 198.464C307.703 200.939 301.687 202.176 294.69 202.176ZM280.738 167.36H261.154V122.176C262.093 122.005 263.415 121.792 265.122 121.536C266.829 121.28 268.535 121.152 270.242 121.152C273.911 121.152 276.557 121.792 278.178 123.072C279.885 124.352 280.738 126.784 280.738 130.368V167.36ZM328.226 167.616H308.642V122.176C309.581 122.005 310.903 121.792 312.61 121.536C314.402 121.28 316.109 121.152 317.73 121.152C321.399 121.152 324.045 121.792 325.666 123.072C327.373 124.352 328.226 126.784 328.226 130.368V167.616ZM393.142 132.928C393.142 134.891 392.63 136.597 391.606 138.048C390.582 139.499 389.43 140.651 388.15 141.504C386.017 140.053 383.585 138.773 380.854 137.664C378.209 136.555 375.051 136 371.382 136C366.859 136 362.934 136.981 359.606 138.944C356.278 140.907 353.718 143.765 351.926 147.52C350.219 151.275 349.366 155.84 349.366 161.216C349.366 169.408 351.414 175.637 355.51 179.904C359.606 184.171 365.238 186.304 372.406 186.304C376.075 186.304 379.233 185.792 381.878 184.768C384.523 183.744 386.955 182.592 389.174 181.312C390.454 182.251 391.478 183.488 392.246 185.024C393.099 186.475 393.526 188.181 393.526 190.144C393.526 191.851 393.057 193.429 392.118 194.88C391.265 196.331 389.771 197.568 387.638 198.592C386.017 199.445 383.713 200.256 380.726 201.024C377.739 201.792 374.113 202.176 369.846 202.176C362.337 202.176 355.467 200.725 349.238 197.824C343.094 194.837 338.23 190.357 334.646 184.384C331.062 178.325 329.27 170.603 329.27 161.216C329.27 152.341 331.019 144.875 334.518 138.816C338.102 132.672 342.881 128.021 348.854 124.864C354.827 121.707 361.441 120.128 368.694 120.128C373.729 120.128 378.081 120.725 381.75 121.92C385.419 123.029 388.235 124.565 390.198 126.528C392.161 128.405 393.142 130.539 393.142 132.928ZM412.709 138.048L412.581 122.432H452.133C452.645 123.2 453.114 124.267 453.541 125.632C453.968 126.997 454.181 128.448 454.181 129.984C454.181 132.715 453.541 134.763 452.261 136.128C451.066 137.408 449.402 138.048 447.269 138.048H412.709ZM430.757 122.432L430.885 138.048H391.333C390.736 137.28 390.224 136.213 389.797 134.848C389.456 133.483 389.285 132.032 389.285 130.496C389.285 127.68 389.882 125.632 391.077 124.352C392.357 123.072 394.021 122.432 396.069 122.432H430.757ZM411.685 134.592H431.269V199.872C430.416 200.128 429.136 200.341 427.429 200.512C425.722 200.768 423.973 200.896 422.181 200.896C418.341 200.896 415.61 200.213 413.989 198.848C412.453 197.483 411.685 195.093 411.685 191.68V134.592ZM11.52 238.504C12.864 238.504 13.968 238.376 14.832 238.12C15.728 237.832 16.368 237.56 16.752 237.304V230.344L10.8 230.968C9.136 231.096 7.904 231.464 7.104 232.072C6.304 232.68 5.904 233.56 5.904 234.712C5.904 235.896 6.368 236.824 7.296 237.496C8.256 238.168 9.664 238.504 11.52 238.504ZM11.472 218.2C14.256 218.2 16.464 218.824 18.096 220.072C19.728 221.32 20.544 223.288 20.544 225.976V237.352C20.544 238.056 20.4 238.6 20.112 238.984C19.856 239.336 19.456 239.672 18.912 239.992C18.144 240.408 17.12 240.792 15.84 241.144C14.56 241.496 13.12 241.672 11.52 241.672C8.512 241.672 6.176 241.08 4.512 239.896C2.88 238.712 2.064 237 2.064 234.76C2.064 232.68 2.752 231.096 4.128 230.008C5.536 228.888 7.472 228.216 9.936 227.992L16.752 227.32V225.976C16.752 224.376 16.272 223.208 15.312 222.472C14.352 221.736 13.056 221.368 11.424 221.368C10.112 221.368 8.848 221.56 7.632 221.944C6.448 222.328 5.392 222.76 4.464 223.24C4.208 223.016 3.968 222.76 3.744 222.472C3.552 222.152 3.456 221.832 3.456 221.512C3.456 220.68 3.92 220.04 4.848 219.592C5.712 219.144 6.704 218.808 7.824 218.584C8.976 218.328 10.192 218.2 11.472 218.2ZM39.5051 221.416C37.3291 221.416 35.5211 222.152 34.0811 223.624C32.6411 225.096 31.9211 227.208 31.9211 229.96C31.9211 232.68 32.6091 234.776 33.9851 236.248C35.3931 237.72 37.2331 238.456 39.5051 238.456C40.8491 238.456 41.9691 238.28 42.8651 237.928C43.7611 237.544 44.5611 237.112 45.2651 236.632C45.6171 236.824 45.9051 237.064 46.1291 237.352C46.3531 237.64 46.4651 237.992 46.4651 238.408C46.4651 239.304 45.7931 240.072 44.4491 240.712C43.1371 241.32 41.4891 241.624 39.5051 241.624C37.2971 241.624 35.3131 241.208 33.5531 240.376C31.8251 239.512 30.4651 238.216 29.4731 236.488C28.4811 234.76 27.9851 232.584 27.9851 229.96C27.9851 227.368 28.4971 225.208 29.5211 223.48C30.5451 221.72 31.9211 220.408 33.6491 219.544C35.4091 218.648 37.3291 218.2 39.4091 218.2C41.3931 218.2 43.0251 218.536 44.3051 219.208C45.6171 219.88 46.2731 220.648 46.2731 221.512C46.2731 221.896 46.1611 222.232 45.9371 222.52C45.7131 222.808 45.4251 223.032 45.0731 223.192C44.3691 222.712 43.5851 222.296 42.7211 221.944C41.8891 221.592 40.8171 221.416 39.5051 221.416ZM63.5445 221.416C61.3685 221.416 59.5605 222.152 58.1205 223.624C56.6805 225.096 55.9605 227.208 55.9605 229.96C55.9605 232.68 56.6485 234.776 58.0245 236.248C59.4325 237.72 61.2725 238.456 63.5445 238.456C64.8885 238.456 66.0085 238.28 66.9045 237.928C67.8005 237.544 68.6005 237.112 69.3045 236.632C69.6565 236.824 69.9445 237.064 70.1685 237.352C70.3925 237.64 70.5045 237.992 70.5045 238.408C70.5045 239.304 69.8325 240.072 68.4885 240.712C67.1765 241.32 65.5285 241.624 63.5445 241.624C61.3365 241.624 59.3525 241.208 57.5925 240.376C55.8645 239.512 54.5045 238.216 53.5125 236.488C52.5205 234.76 52.0245 232.584 52.0245 229.96C52.0245 227.368 52.5365 225.208 53.5605 223.48C54.5845 221.72 55.9605 220.408 57.6885 219.544C59.4485 218.648 61.3685 218.2 63.4485 218.2C65.4325 218.2 67.0645 218.536 68.3445 219.208C69.6565 219.88 70.3125 220.648 70.3125 221.512C70.3125 221.896 70.2005 222.232 69.9765 222.52C69.7525 222.808 69.4645 223.032 69.1125 223.192C68.4085 222.712 67.6245 222.296 66.7605 221.944C65.9285 221.592 64.8565 221.416 63.5445 221.416ZM77.8744 232.888V228.52H81.7144V232.696C81.7144 234.744 82.2584 236.216 83.3464 237.112C84.4344 238.008 85.9384 238.456 87.8584 238.456C89.1384 238.456 90.2264 238.328 91.1224 238.072C92.0184 237.784 92.7224 237.496 93.2344 237.208V228.52H97.0744V237.064C97.0744 237.736 96.9784 238.28 96.7864 238.696C96.6264 239.08 96.2104 239.464 95.5384 239.848C94.8344 240.264 93.8264 240.664 92.5144 241.048C91.2024 241.432 89.6344 241.624 87.8104 241.624C85.6984 241.624 83.8904 241.32 82.3864 240.712C80.9144 240.072 79.7944 239.112 79.0264 237.832C78.2584 236.52 77.8744 234.872 77.8744 232.888ZM97.0744 231.016H93.2344V218.92C93.3944 218.856 93.6344 218.792 93.9544 218.728C94.3064 218.632 94.6584 218.584 95.0104 218.584C95.7144 218.584 96.2264 218.728 96.5464 219.016C96.8984 219.272 97.0744 219.72 97.0744 220.36V231.016ZM81.7144 231.016H77.8744V218.92C78.0344 218.856 78.2744 218.792 78.5944 218.728C78.9464 218.632 79.3144 218.584 79.6984 218.584C80.3704 218.584 80.8664 218.728 81.1864 219.016C81.5384 219.272 81.7144 219.72 81.7144 220.36V231.016ZM109.785 222.952V230.536H105.945V223.24C105.945 222.504 106.073 221.928 106.329 221.512C106.617 221.064 107.081 220.632 107.721 220.216C108.553 219.672 109.689 219.208 111.129 218.824C112.569 218.408 114.169 218.2 115.929 218.2C118.489 218.2 119.769 218.84 119.769 220.12C119.769 220.44 119.721 220.744 119.625 221.032C119.529 221.288 119.401 221.512 119.241 221.704C118.921 221.64 118.505 221.576 117.993 221.512C117.481 221.448 116.969 221.416 116.457 221.416C114.985 221.416 113.689 221.576 112.569 221.896C111.449 222.184 110.521 222.536 109.785 222.952ZM105.945 228.328L109.785 228.904V240.904C109.625 240.968 109.385 241.032 109.065 241.096C108.745 241.192 108.393 241.24 108.009 241.24C107.337 241.24 106.825 241.112 106.473 240.856C106.121 240.568 105.945 240.12 105.945 239.512V228.328ZM133.639 238.504C134.983 238.504 136.087 238.376 136.951 238.12C137.847 237.832 138.487 237.56 138.871 237.304V230.344L132.919 230.968C131.255 231.096 130.023 231.464 129.223 232.072C128.423 232.68 128.023 233.56 128.023 234.712C128.023 235.896 128.487 236.824 129.415 237.496C130.375 238.168 131.783 238.504 133.639 238.504ZM133.591 218.2C136.375 218.2 138.583 218.824 140.215 220.072C141.847 221.32 142.663 223.288 142.663 225.976V237.352C142.663 238.056 142.519 238.6 142.231 238.984C141.975 239.336 141.575 239.672 141.031 239.992C140.263 240.408 139.239 240.792 137.959 241.144C136.679 241.496 135.239 241.672 133.639 241.672C130.631 241.672 128.295 241.08 126.631 239.896C124.999 238.712 124.183 237 124.183 234.76C124.183 232.68 124.871 231.096 126.247 230.008C127.655 228.888 129.591 228.216 132.055 227.992L138.871 227.32V225.976C138.871 224.376 138.391 223.208 137.431 222.472C136.471 221.736 135.175 221.368 133.543 221.368C132.231 221.368 130.967 221.56 129.751 221.944C128.567 222.328 127.511 222.76 126.583 223.24C126.327 223.016 126.087 222.76 125.863 222.472C125.671 222.152 125.575 221.832 125.575 221.512C125.575 220.68 126.039 220.04 126.967 219.592C127.831 219.144 128.823 218.808 129.943 218.584C131.095 218.328 132.311 218.2 133.591 218.2ZM151.4 228.328H155.24V234.952C155.24 236.232 155.608 237.144 156.344 237.688C157.08 238.2 158.088 238.456 159.368 238.456C159.912 238.456 160.52 238.36 161.192 238.168C161.864 237.976 162.424 237.752 162.872 237.496C163.064 237.688 163.24 237.928 163.4 238.216C163.56 238.504 163.64 238.84 163.64 239.224C163.64 239.928 163.224 240.504 162.392 240.952C161.56 241.4 160.408 241.624 158.936 241.624C156.696 241.624 154.872 241.128 153.464 240.136C152.088 239.144 151.4 237.496 151.4 235.192V228.328ZM153.368 222.472V219.304H163.112C163.208 219.432 163.304 219.64 163.4 219.928C163.496 220.216 163.544 220.52 163.544 220.84C163.544 221.352 163.416 221.752 163.16 222.04C162.904 222.328 162.552 222.472 162.104 222.472H153.368ZM155.24 229.768H151.4V212.392C151.56 212.328 151.8 212.264 152.12 212.2C152.472 212.104 152.84 212.056 153.224 212.056C153.896 212.056 154.392 212.2 154.712 212.488C155.064 212.744 155.24 213.176 155.24 213.784V229.768ZM171.58 232.36L171.388 229.336L185.884 227.368C185.756 225.608 185.148 224.168 184.06 223.048C182.972 221.896 181.468 221.32 179.548 221.32C177.564 221.32 175.916 222.04 174.604 223.48C173.324 224.888 172.684 226.92 172.684 229.576V230.632C172.908 233.192 173.74 235.144 175.18 236.488C176.652 237.8 178.652 238.456 181.18 238.456C182.524 238.456 183.74 238.232 184.828 237.784C185.916 237.336 186.78 236.856 187.42 236.344C187.772 236.568 188.044 236.84 188.236 237.16C188.46 237.448 188.572 237.784 188.572 238.168C188.572 238.776 188.22 239.352 187.516 239.896C186.844 240.408 185.932 240.824 184.78 241.144C183.66 241.464 182.396 241.624 180.988 241.624C178.524 241.624 176.38 241.176 174.556 240.28C172.764 239.384 171.372 238.056 170.38 236.296C169.42 234.504 168.94 232.328 168.94 229.768C168.94 227.944 169.196 226.328 169.708 224.92C170.252 223.48 170.988 222.264 171.916 221.272C172.876 220.28 174.012 219.528 175.324 219.016C176.636 218.472 178.06 218.2 179.596 218.2C181.548 218.2 183.26 218.616 184.732 219.448C186.236 220.28 187.404 221.448 188.236 222.952C189.1 224.424 189.532 226.12 189.532 228.04C189.532 228.744 189.372 229.256 189.052 229.576C188.732 229.864 188.284 230.04 187.708 230.104L171.58 232.36ZM218.32 221.416C216.144 221.416 214.336 222.152 212.896 223.624C211.456 225.096 210.736 227.208 210.736 229.96C210.736 232.68 211.424 234.776 212.8 236.248C214.208 237.72 216.048 238.456 218.32 238.456C219.664 238.456 220.784 238.28 221.68 237.928C222.576 237.544 223.376 237.112 224.08 236.632C224.432 236.824 224.72 237.064 224.944 237.352C225.168 237.64 225.28 237.992 225.28 238.408C225.28 239.304 224.608 240.072 223.264 240.712C221.952 241.32 220.304 241.624 218.32 241.624C216.112 241.624 214.128 241.208 212.368 240.376C210.64 239.512 209.28 238.216 208.288 236.488C207.296 234.76 206.8 232.584 206.8 229.96C206.8 227.368 207.312 225.208 208.336 223.48C209.36 221.72 210.736 220.408 212.464 219.544C214.224 218.648 216.144 218.2 218.224 218.2C220.208 218.2 221.84 218.536 223.12 219.208C224.432 219.88 225.088 220.648 225.088 221.512C225.088 221.896 224.976 222.232 224.752 222.52C224.528 222.808 224.24 223.032 223.888 223.192C223.184 222.712 222.4 222.296 221.536 221.944C220.704 221.592 219.632 221.416 218.32 221.416ZM240.758 238.504C242.102 238.504 243.206 238.376 244.07 238.12C244.966 237.832 245.606 237.56 245.99 237.304V230.344L240.038 230.968C238.374 231.096 237.142 231.464 236.342 232.072C235.542 232.68 235.142 233.56 235.142 234.712C235.142 235.896 235.606 236.824 236.534 237.496C237.494 238.168 238.902 238.504 240.758 238.504ZM240.71 218.2C243.494 218.2 245.702 218.824 247.334 220.072C248.966 221.32 249.782 223.288 249.782 225.976V237.352C249.782 238.056 249.638 238.6 249.35 238.984C249.094 239.336 248.694 239.672 248.15 239.992C247.382 240.408 246.358 240.792 245.078 241.144C243.798 241.496 242.358 241.672 240.758 241.672C237.75 241.672 235.414 241.08 233.75 239.896C232.118 238.712 231.302 237 231.302 234.76C231.302 232.68 231.99 231.096 233.366 230.008C234.774 228.888 236.71 228.216 239.174 227.992L245.99 227.32V225.976C245.99 224.376 245.51 223.208 244.55 222.472C243.59 221.736 242.294 221.368 240.662 221.368C239.35 221.368 238.086 221.56 236.87 221.944C235.686 222.328 234.63 222.76 233.702 223.24C233.446 223.016 233.206 222.76 232.982 222.472C232.79 222.152 232.694 221.832 232.694 221.512C232.694 220.68 233.158 220.04 234.086 219.592C234.95 219.144 235.942 218.808 237.062 218.584C238.214 218.328 239.43 218.2 240.71 218.2ZM262.311 222.952V230.536H258.471V223.24C258.471 222.504 258.599 221.928 258.855 221.512C259.143 221.064 259.607 220.632 260.247 220.216C261.079 219.672 262.215 219.208 263.655 218.824C265.095 218.408 266.695 218.2 268.455 218.2C271.015 218.2 272.295 218.84 272.295 220.12C272.295 220.44 272.247 220.744 272.151 221.032C272.055 221.288 271.927 221.512 271.767 221.704C271.447 221.64 271.031 221.576 270.519 221.512C270.007 221.448 269.495 221.416 268.983 221.416C267.511 221.416 266.215 221.576 265.095 221.896C263.975 222.184 263.047 222.536 262.311 222.952ZM258.471 228.328L262.311 228.904V240.904C262.151 240.968 261.911 241.032 261.591 241.096C261.271 241.192 260.919 241.24 260.535 241.24C259.863 241.24 259.351 241.112 258.999 240.856C258.647 240.568 258.471 240.12 258.471 239.512V228.328ZM279.402 232.36L279.21 229.336L293.706 227.368C293.578 225.608 292.97 224.168 291.882 223.048C290.794 221.896 289.29 221.32 287.37 221.32C285.386 221.32 283.738 222.04 282.426 223.48C281.146 224.888 280.506 226.92 280.506 229.576V230.632C280.73 233.192 281.562 235.144 283.002 236.488C284.474 237.8 286.474 238.456 289.002 238.456C290.346 238.456 291.562 238.232 292.65 237.784C293.738 237.336 294.602 236.856 295.242 236.344C295.594 236.568 295.866 236.84 296.058 237.16C296.282 237.448 296.394 237.784 296.394 238.168C296.394 238.776 296.042 239.352 295.338 239.896C294.666 240.408 293.754 240.824 292.602 241.144C291.482 241.464 290.218 241.624 288.81 241.624C286.346 241.624 284.202 241.176 282.378 240.28C280.586 239.384 279.194 238.056 278.202 236.296C277.242 234.504 276.762 232.328 276.762 229.768C276.762 227.944 277.018 226.328 277.53 224.92C278.074 223.48 278.81 222.264 279.738 221.272C280.698 220.28 281.834 219.528 283.146 219.016C284.458 218.472 285.882 218.2 287.418 218.2C289.37 218.2 291.082 218.616 292.554 219.448C294.058 220.28 295.226 221.448 296.058 222.952C296.922 224.424 297.354 226.12 297.354 228.04C297.354 228.744 297.194 229.256 296.874 229.576C296.554 229.864 296.106 230.04 295.53 230.104L279.402 232.36ZM305.973 232.36L305.781 229.336L320.277 227.368C320.149 225.608 319.541 224.168 318.453 223.048C317.365 221.896 315.861 221.32 313.941 221.32C311.957 221.32 310.309 222.04 308.997 223.48C307.717 224.888 307.077 226.92 307.077 229.576V230.632C307.301 233.192 308.133 235.144 309.573 236.488C311.045 237.8 313.045 238.456 315.573 238.456C316.917 238.456 318.133 238.232 319.221 237.784C320.309 237.336 321.173 236.856 321.813 236.344C322.165 236.568 322.437 236.84 322.629 237.16C322.853 237.448 322.965 237.784 322.965 238.168C322.965 238.776 322.613 239.352 321.909 239.896C321.237 240.408 320.325 240.824 319.173 241.144C318.053 241.464 316.789 241.624 315.381 241.624C312.917 241.624 310.773 241.176 308.949 240.28C307.157 239.384 305.765 238.056 304.773 236.296C303.813 234.504 303.333 232.328 303.333 229.768C303.333 227.944 303.589 226.328 304.101 224.92C304.645 223.48 305.381 222.264 306.309 221.272C307.269 220.28 308.405 219.528 309.717 219.016C311.029 218.472 312.453 218.2 313.989 218.2C315.941 218.2 317.653 218.616 319.125 219.448C320.629 220.28 321.797 221.448 322.629 222.952C323.493 224.424 323.925 226.12 323.925 228.04C323.925 228.744 323.765 229.256 323.445 229.576C323.125 229.864 322.677 230.04 322.101 230.104L305.973 232.36ZM334.991 222.952V230.536H331.151V223.24C331.151 222.504 331.279 221.928 331.535 221.512C331.823 221.064 332.287 220.632 332.927 220.216C333.759 219.672 334.895 219.208 336.335 218.824C337.775 218.408 339.375 218.2 341.135 218.2C343.695 218.2 344.975 218.84 344.975 220.12C344.975 220.44 344.927 220.744 344.831 221.032C344.735 221.288 344.607 221.512 344.447 221.704C344.127 221.64 343.711 221.576 343.199 221.512C342.687 221.448 342.175 221.416 341.663 221.416C340.191 221.416 338.895 221.576 337.775 221.896C336.655 222.184 335.727 222.536 334.991 222.952ZM331.151 228.328L334.991 228.904V240.904C334.831 240.968 334.591 241.032 334.271 241.096C333.951 241.192 333.599 241.24 333.215 241.24C332.543 241.24 332.031 241.112 331.679 240.856C331.327 240.568 331.151 240.12 331.151 239.512V228.328ZM362.113 211.816C362.113 211.144 362.353 210.584 362.833 210.136C363.313 209.656 363.905 209.416 364.609 209.416C365.345 209.416 365.937 209.656 366.385 210.136C366.833 210.584 367.057 211.144 367.057 211.816C367.057 212.488 366.833 213.064 366.385 213.544C365.937 213.992 365.345 214.216 364.609 214.216C363.905 214.216 363.313 213.992 362.833 213.544C362.353 213.064 362.113 212.488 362.113 211.816ZM362.689 228.328H366.529V240.904C366.369 240.968 366.129 241.032 365.809 241.096C365.489 241.192 365.137 241.24 364.753 241.24C364.081 241.24 363.569 241.112 363.217 240.856C362.865 240.568 362.689 240.12 362.689 239.512V228.328ZM366.529 230.2H362.689V218.92C362.849 218.856 363.089 218.792 363.409 218.728C363.761 218.632 364.129 218.584 364.513 218.584C365.185 218.584 365.681 218.728 366.001 219.016C366.353 219.272 366.529 219.72 366.529 220.36V230.2ZM394.907 226.36V231.256H391.067V226.552C391.067 224.76 390.555 223.448 389.531 222.616C388.539 221.784 387.195 221.368 385.499 221.368C384.219 221.368 383.083 221.528 382.091 221.848C381.099 222.168 380.251 222.536 379.547 222.952V231.256H375.707V223.144C375.707 222.472 375.835 221.928 376.091 221.512C376.379 221.064 376.859 220.632 377.531 220.216C378.363 219.736 379.467 219.288 380.843 218.872C382.219 218.424 383.771 218.2 385.499 218.2C388.411 218.2 390.699 218.872 392.363 220.216C394.059 221.528 394.907 223.576 394.907 226.36ZM375.707 228.616H379.547V240.904C379.387 240.968 379.147 241.032 378.827 241.096C378.507 241.192 378.155 241.24 377.771 241.24C377.099 241.24 376.587 241.112 376.235 240.856C375.883 240.568 375.707 240.12 375.707 239.512V228.616ZM391.067 228.616H394.907V240.904C394.747 240.968 394.491 241.032 394.139 241.096C393.819 241.192 393.483 241.24 393.131 241.24C392.427 241.24 391.899 241.112 391.547 240.856C391.227 240.568 391.067 240.12 391.067 239.512V228.616ZM406.993 223.192V220.072H417.169C417.265 220.2 417.361 220.408 417.457 220.696C417.553 220.952 417.601 221.256 417.601 221.608C417.601 222.12 417.473 222.52 417.217 222.808C416.961 223.064 416.593 223.192 416.113 223.192H406.993ZM407.665 217.048V222.664H403.873V216.856C403.873 214.968 404.209 213.448 404.881 212.296C405.585 211.112 406.577 210.248 407.857 209.704C409.169 209.128 410.721 208.84 412.513 208.84C414.337 208.84 415.761 209.08 416.785 209.56C417.841 210.04 418.369 210.632 418.369 211.336C418.369 211.688 418.289 212.008 418.129 212.296C418.001 212.584 417.809 212.856 417.553 213.112C416.977 212.792 416.257 212.536 415.393 212.344C414.529 212.12 413.697 212.008 412.897 212.008C410.945 212.008 409.585 212.408 408.817 213.208C408.049 214.008 407.665 215.288 407.665 217.048ZM403.873 220.552H407.713V240.904C407.553 240.968 407.313 241.032 406.993 241.096C406.673 241.192 406.321 241.24 405.937 241.24C405.265 241.24 404.753 241.112 404.401 240.856C404.049 240.568 403.873 240.12 403.873 239.512V220.552ZM443.768 229.912C443.768 232.28 443.32 234.344 442.424 236.104C441.528 237.864 440.264 239.224 438.632 240.184C437 241.144 435.08 241.624 432.872 241.624C430.664 241.624 428.728 241.144 427.064 240.184C425.432 239.224 424.168 237.864 423.272 236.104C422.376 234.344 421.928 232.28 421.928 229.912C421.928 227.512 422.376 225.448 423.272 223.72C424.2 221.96 425.48 220.6 427.112 219.64C428.776 218.68 430.696 218.2 432.872 218.2C435.048 218.2 436.952 218.68 438.584 219.64C440.216 220.6 441.48 221.96 442.376 223.72C443.304 225.448 443.768 227.512 443.768 229.912ZM432.872 221.368C430.728 221.368 429.016 222.136 427.736 223.672C426.488 225.176 425.864 227.256 425.864 229.912C425.864 232.6 426.472 234.696 427.688 236.2C428.936 237.704 430.664 238.456 432.872 238.456C435.048 238.456 436.744 237.704 437.96 236.2C439.208 234.664 439.832 232.568 439.832 229.912C439.832 227.256 439.208 225.176 437.96 223.672C436.744 222.136 435.048 221.368 432.872 221.368Z" fill="white"/>
</g>
<g filter="url(#filter1_i_103_38)">
<path fill-rule="evenodd" clip-rule="evenodd" d="M190.681 18.8098C195.251 20.3052 201.162 23.1253 205.577 28.4454C210.405 34.2616 210.747 42.8243 210.301 48.9298C210.067 52.1417 209.584 55.0313 209.162 57.1122C208.95 58.1566 208.752 59.0072 208.605 59.6047C208.531 59.9037 208.47 60.1399 208.425 60.3061C208.403 60.3892 208.386 60.4548 208.373 60.502L208.357 60.559L208.352 60.5769L208.349 60.5857C208.349 60.5857 208.349 60.5877 204.5 59.5C200.65 58.4123 200.65 58.4139 200.65 58.4139L200.65 58.4127L200.658 58.3857C200.665 58.3588 200.677 58.314 200.694 58.2523C200.726 58.1289 200.776 57.9382 200.838 57.6873C200.962 57.1851 201.135 56.4446 201.321 55.5231C201.697 53.6721 202.119 51.131 202.323 48.3475C202.752 42.4621 202.094 36.7748 199.422 33.5546C196.337 29.8383 191.998 27.6584 188.193 26.4129C186.319 25.7996 184.652 25.4388 183.465 25.233C182.873 25.1305 182.407 25.0675 182.101 25.0311C181.948 25.0129 181.835 25.0014 181.767 24.9949C181.733 24.9917 181.711 24.9897 181.7 24.9888L181.701 24.9889C181.701 24.9889 181.704 24.9891 182 21C182.295 17.0109 182.298 17.0111 182.298 17.0111L182.301 17.0114L182.308 17.0119L182.325 17.0132L182.374 17.0173C182.413 17.0205 182.464 17.0251 182.527 17.0311C182.654 17.0432 182.828 17.0612 183.045 17.087C183.479 17.1386 184.087 17.2215 184.831 17.3505C186.316 17.6078 188.368 18.0527 190.681 18.8098ZM181.7 24.9888C181.695 24.9884 181.693 24.9882 181.693 24.9882L181.696 24.9885L181.7 24.9888ZM180.581 30.1046C185.034 30.6266 190.774 32.3019 194.254 37.175C197.721 42.028 197.482 48.4188 196.829 52.7242C196.483 55.0126 195.966 57.0387 195.54 58.488C195.326 59.2167 195.131 59.8095 194.987 60.2286C194.915 60.4384 194.855 60.6053 194.812 60.7246C194.79 60.7843 194.772 60.8321 194.759 60.8675L194.742 60.9112L194.737 60.926L194.734 60.9339C194.734 60.9339 194.733 60.9359 191 59.5C187.266 58.0641 187.265 58.0658 187.265 58.0658L187.269 58.0575C187.274 58.0433 187.284 58.0173 187.297 57.98C187.324 57.9055 187.367 57.7862 187.422 57.6269C187.532 57.3076 187.689 56.8302 187.865 56.2307C188.22 55.0238 188.641 53.3624 188.92 51.5258C189.517 47.5812 189.278 43.972 187.745 41.8249C186.225 39.6981 183.286 38.4766 179.649 38.0502C176.058 37.6291 172.868 38.1154 172.151 38.3308L169.849 30.6692C171.773 30.0909 176.083 29.5772 180.581 30.1046ZM172.925 41.2358C175.249 41.6291 177.739 42.7826 179.374 45.3525C181.924 49.3589 181.744 54.209 181.269 57.4017C181.016 59.0981 180.64 60.58 180.329 61.6365C180.152 62.2394 179.96 62.8397 179.737 63.4272C179.719 63.4735 176.36 62.1399 176 62C172.272 60.5502 172.271 60.5521 172.271 60.5521C172.271 60.5521 172.606 59.5428 172.654 59.3791C172.891 58.5762 173.171 57.4644 173.356 56.2233C173.755 53.541 173.576 51.1411 172.625 49.6475C172.51 49.4674 172.313 49.2459 171.59 49.1236C170.774 48.9855 169.634 49.0557 168.281 49.3476C166.971 49.63 165.706 50.0656 164.745 50.446C163.918 50.7732 163.363 51.0413 163.29 51.0772C163.282 51.0811 161.67 47.8406 161.5 47.5C159.711 43.9223 159.713 43.9213 159.713 43.9213C160.392 43.5819 161.096 43.2864 161.801 43.0071C163.012 42.5282 164.716 41.9324 166.594 41.5274C168.428 41.1317 170.694 40.8583 172.925 41.2358Z" fill="#FFA500"/>
</g>
<g filter="url(#filter2_i_103_38)">
<path fill-rule="evenodd" clip-rule="evenodd" d="M179.148 103.165C180.16 102.802 180.681 101.691 180.335 100.673L178.093 94.0629C177.728 92.9856 176.54 92.4322 175.468 92.813C172.582 93.838 169.72 94.654 166.917 95.2617C166.901 95.2652 166.891 95.2822 166.897 95.2981V95.2981C166.902 95.3138 166.893 95.3307 166.877 95.3345C157.548 97.5093 148.299 97.8088 140.009 96.2859C128.723 94.2128 120.33 89.0061 115.407 82.3113C110.565 75.7262 108.77 67.3062 110.856 57.9532C112.976 48.4454 119.048 38.4567 128.768 29.9431C138.465 21.4496 150.833 15.2872 163.776 12.5561C176.744 9.81987 189.017 10.7862 198.658 14.7073C208.205 18.5902 214.452 25.0264 217.281 32.5418C219.23 37.7177 219.67 43.7069 218.276 50.105C217.877 53.1565 216.906 56.3255 215.418 59.5149C214.833 60.7694 215.57 62.2785 216.937 62.497L223.64 63.5691C224.52 63.7098 225.391 63.252 225.749 62.436C230.823 50.8698 231.474 39.0174 227.576 28.6656C223.524 17.9043 214.794 9.3953 202.802 4.51781C190.81 -0.35969 176.258 -1.31979 161.505 1.79314C146.752 4.90606 132.662 11.9095 121.521 21.6684C110.379 31.4272 102.838 43.3694 100.12 55.5591C97.4016 67.7489 99.6657 79.4718 106.545 88.8277C113.424 98.1835 124.516 104.624 138.021 107.105C148.256 108.985 159.423 108.508 170.455 105.788C171.79 105.458 173.124 105.096 174.454 104.701C176.025 104.234 177.591 103.722 179.148 103.165Z" fill="#FFA500"/>
</g>
<g filter="url(#filter3_i_103_38)">
<circle cx="159" cy="60" r="6" fill="#FFA500"/>
</g>
<defs>
<filter id="filter0_i_103_38" x="1.79199" y="120.128" width="452.389" height="125.544" filterUnits="userSpaceOnUse" color-interpolation-filters="sRGB">
<feFlood flood-opacity="0" result="BackgroundImageFix"/>
<feBlend mode="normal" in="SourceGraphic" in2="BackgroundImageFix" result="shape"/>
<feColorMatrix in="SourceAlpha" type="matrix" values="0 0 0 0 0 0 0 0 0 0 0 0 0 0 0 0 0 0 127 0" result="hardAlpha"/>
<feOffset dy="4"/>
<feGaussianBlur stdDeviation="2"/>
<feComposite in2="hardAlpha" operator="arithmetic" k2="-1" k3="1"/>
<feColorMatrix type="matrix" values="0 0 0 0 0 0 0 0 0 0 0 0 0 0 0 0 0 0 0.25 0"/>
<feBlend mode="normal" in2="shape" result="effect1_innerShadow_103_38"/>
</filter>
<filter id="filter1_i_103_38" x="159.713" y="17.0111" width="50.7319" height="50.4172" filterUnits="userSpaceOnUse" color-interpolation-filters="sRGB">
<feFlood flood-opacity="0" result="BackgroundImageFix"/>
<feBlend mode="normal" in="SourceGraphic" in2="BackgroundImageFix" result="shape"/>
<feColorMatrix in="SourceAlpha" type="matrix" values="0 0 0 0 0 0 0 0 0 0 0 0 0 0 0 0 0 0 127 0" result="hardAlpha"/>
<feOffset dy="4"/>
<feGaussianBlur stdDeviation="2"/>
<feComposite in2="hardAlpha" operator="arithmetic" k2="-1" k3="1"/>
<feColorMatrix type="matrix" values="0 0 0 0 0 0 0 0 0 0 0 0 0 0 0 0 0 0 0.25 0"/>
<feBlend mode="normal" in2="shape" result="effect1_innerShadow_103_38"/>
</filter>
<filter id="filter2_i_103_38" x="99" y="0" width="131.091" height="112.237" filterUnits="userSpaceOnUse" color-interpolation-filters="sRGB">
<feFlood flood-opacity="0" result="BackgroundImageFix"/>
<feBlend mode="normal" in="SourceGraphic" in2="BackgroundImageFix" result="shape"/>
<feColorMatrix in="SourceAlpha" type="matrix" values="0 0 0 0 0 0 0 0 0 0 0 0 0 0 0 0 0 0 127 0" result="hardAlpha"/>
<feOffset dy="4"/>
<feGaussianBlur stdDeviation="2"/>
<feComposite in2="hardAlpha" operator="arithmetic" k2="-1" k3="1"/>
<feColorMatrix type="matrix" values="0 0 0 0 0 0 0 0 0 0 0 0 0 0 0 0 0 0 0.25 0"/>
<feBlend mode="normal" in2="shape" result="effect1_innerShadow_103_38"/>
</filter>
<filter id="filter3_i_103_38" x="153" y="54" width="12" height="16" filterUnits="userSpaceOnUse" color-interpolation-filters="sRGB">
<feFlood flood-opacity="0" result="BackgroundImageFix"/>
<feBlend mode="normal" in="SourceGraphic" in2="BackgroundImageFix" result="shape"/>
<feColorMatrix in="SourceAlpha" type="matrix" values="0 0 0 0 0 0 0 0 0 0 0 0 0 0 0 0 0 0 127 0" result="hardAlpha"/>
<feOffset dy="4"/>
<feGaussianBlur stdDeviation="2"/>
<feComposite in2="hardAlpha" operator="arithmetic" k2="-1" k3="1"/>
<feColorMatrix type="matrix" values="0 0 0 0 0 0 0 0 0 0 0 0 0 0 0 0 0 0 0.25 0"/>
<feBlend mode="normal" in2="shape" result="effect1_innerShadow_103_38"/>
</filter>
</defs>
</svg>
